<svg id="Layer_1" data-name="Layer 1" xmlns="http://www.w3.org/2000/svg" viewBox="0 0 170.28 98.88"><defs><style>.cls-1{fill:#f49424;}.cls-2{fill:#f49220;}.cls-3{fill:#f49221;}.cls-4{fill:#2f2e36;}.cls-5{fill:#302f37;}.cls-6{fill:#2c2b33;}.cls-7{fill:#2c2c33;}.cls-8{fill:#302e36;}.cls-9{fill:#33323a;}.cls-10{fill:#f49525;}</style></defs><title>logo-1</title><path class="cls-1" d="M48,65.34a1.93,1.93,0,0,1-.1.84.39.39,0,0,1-.57.2,3,3,0,0,1-.39-.32,4.34,4.34,0,0,1-.81-1.1,14,14,0,0,1-1.64-4.19,7.9,7.9,0,0,1-.15-1.19A1.93,1.93,0,0,1,44.4,59a.39.39,0,0,1,.55-.25,1.73,1.73,0,0,1,.65.55c.29.42.58.84.83,1.29a13.45,13.45,0,0,1,1.45,4C47.94,64.89,48,65.2,48,65.34Z"/><path class="cls-1" d="M44.22,27.55c.1-.43.18-.88.31-1.32a11.21,11.21,0,0,1,2.1-4,2.72,2.72,0,0,1,.78-.66c.42-.22.73-.07.8.41a2,2,0,0,1,0,.59A11.23,11.23,0,0,1,47.9,24,11.71,11.71,0,0,1,46,27.55a3.13,3.13,0,0,1-1,.89.42.42,0,0,1-.66-.28A5.07,5.07,0,0,1,44.22,27.55Z"/><path class="cls-2" d="M48.82,69.64a13.22,13.22,0,0,0,.77,4.57,21.67,21.67,0,0,1,.71,2.2,6.26,6.26,0,0,1-.76,4.94,5.28,5.28,0,0,1-4.35,2.51,6.65,6.65,0,0,1-6.13-3.24A6.38,6.38,0,0,1,38,76.06a5.63,5.63,0,0,1,3.6-4.72c.56-.24,1.12-.44,1.66-.69a10,10,0,0,0,4.24-3.75,12.3,12.3,0,0,0,1.82-8.36,14.31,14.31,0,0,0-.82-3.23,9.47,9.47,0,0,1-.7-2.55,5.76,5.76,0,0,1,2.39-5.54,5.69,5.69,0,0,1,3-1,6.5,6.5,0,0,1,5.75,2.63,10.42,10.42,0,0,1,1.34,2.28,15.85,15.85,0,0,0,2.27,3.62,14.13,14.13,0,0,0,4.85,3.71,12.69,12.69,0,0,0,3.43,1,11.16,11.16,0,0,0,4.84-.21c.69-.2,1.38-.36,2.07-.55a4.41,4.41,0,0,1,2.28,0,8.36,8.36,0,0,1,2.16.79,7.16,7.16,0,0,1,3.5,4.94,5.72,5.72,0,0,1-.59,4.07,5.45,5.45,0,0,1-4.64,2.91,7,7,0,0,1-1.71-.09,6.31,6.31,0,0,1-3.57-2.06,9.38,9.38,0,0,1-1.62-2.51,15.83,15.83,0,0,0-2.15-3.58,14.39,14.39,0,0,0-5.86-4.33,12.1,12.1,0,0,0-8.22-.2,16.77,16.77,0,0,0-2.24.83,10.42,10.42,0,0,0-5.2,5.34A11.14,11.14,0,0,0,48.82,69.64Z"/><path class="cls-3" d="M36.91,53.16a10,10,0,0,1-1.12,4.55c-.59,1.1-1.19,2.21-1.67,3.37a21.89,21.89,0,0,0-1.54,10,17.09,17.09,0,0,0,1.27,5.4c.07.15.12.32.19.47a10.41,10.41,0,0,1-.1,8.33,5.38,5.38,0,0,1-1.64,2.17A2.28,2.28,0,0,1,29,87.25a4.31,4.31,0,0,1-1.07-2,11.21,11.21,0,0,1-.27-4A10,10,0,0,1,29,77.11a22.63,22.63,0,0,0,2.28-5.53,20,20,0,0,0-.79-12.85,11.43,11.43,0,0,0-1.28-2.42,4.85,4.85,0,0,0-2.47-1.9,4.38,4.38,0,0,0-4.51,1.08A13.76,13.76,0,0,0,20.05,58a6.26,6.26,0,0,1-.9,1.15,2.46,2.46,0,0,1-4-.42,3.25,3.25,0,0,1-.4-.76,10.29,10.29,0,0,1,.9-9.2,4.23,4.23,0,0,1,1.47-1.41,2.07,2.07,0,0,1,2.85.7,16.73,16.73,0,0,1,.89,1.46,10.88,10.88,0,0,0,1.59,2.12,4.26,4.26,0,0,0,5.12.75,7,7,0,0,0,2.54-2.24,15.49,15.49,0,0,1,1.53-2.06,3.44,3.44,0,0,1,.65-.56,2.23,2.23,0,0,1,3,.41,4.68,4.68,0,0,1,1,1.6A10.34,10.34,0,0,1,36.91,53.16Z"/><path class="cls-2" d="M45.24,12a5.38,5.38,0,0,1,2.45.53,3.89,3.89,0,0,1,2.09,3.89,5.56,5.56,0,0,1-1.29,3,7.23,7.23,0,0,1-4.08,2.66c-.58.13-1.17.28-1.74.45A15.67,15.67,0,0,0,36.62,26,13.58,13.58,0,0,0,34,29.15,11.2,11.2,0,0,0,32.56,34a10.43,10.43,0,0,1-.11,1.11A6.8,6.8,0,0,1,29.22,40a6.63,6.63,0,0,1-4.74,1,3.89,3.89,0,0,1-3.32-4.59,5.93,5.93,0,0,1,1.5-3.12,7,7,0,0,1,3.73-2.27,19.78,19.78,0,0,0,2.39-.69,15.08,15.08,0,0,0,7.91-6.23A10.76,10.76,0,0,0,38.36,19c0-.17,0-.34,0-.51a6.25,6.25,0,0,1,2.63-5,7.69,7.69,0,0,1,2.33-1.24A5.51,5.51,0,0,1,45.24,12Z"/><path class="cls-2" d="M50,37.09a8.49,8.49,0,0,1-5.11-1.6,4.94,4.94,0,0,1-1.44-1.44,2.72,2.72,0,0,1,.84-3.83,5.92,5.92,0,0,1,2.48-.85,18.47,18.47,0,0,0,2.86-.53,7.71,7.71,0,0,0,4.26-3,4.76,4.76,0,0,0,.5-4.64c-.11-.29-.27-.57-.39-.86a6.5,6.5,0,0,1-.36-.86,2.46,2.46,0,0,1,1.26-3,7,7,0,0,1,3.29-.82,9.35,9.35,0,0,1,5.41,1.6,4.55,4.55,0,0,1,1.59,1.86,2.47,2.47,0,0,1-.93,3.3,4.92,4.92,0,0,1-2.28.89A16.45,16.45,0,0,0,58.7,24a9.69,9.69,0,0,0-2.89,1.45,4.81,4.81,0,0,0-1.91,5.36,10.38,10.38,0,0,0,.51,1.45,8.63,8.63,0,0,1,.37,1,2.47,2.47,0,0,1-1.25,3A6.15,6.15,0,0,1,50,37.09Z"/><path class="cls-4" d="M80.92,41.12c0,1.34,0,2.68,0,4a5.29,5.29,0,0,1-1.36,3.52,4.87,4.87,0,0,1-3.19,1.64,6.61,6.61,0,0,1-.77,0c-2.26,0-4.51,0-6.77,0a6.74,6.74,0,0,1-1.27-.11,5,5,0,0,1-3.95-4.13,7.78,7.78,0,0,1-.11-1.27c0-2.54,0-5.08,0-7.62a5.25,5.25,0,0,1,2-4.26,4.39,4.39,0,0,1,2.66-1c.69,0,1.37,0,2.06,0,1.8,0,3.6.06,5.39,0A5.25,5.25,0,0,1,80.91,37c0,1.37,0,2.74,0,4.11ZM66,41.07h0v.68c0,1.12,0,2.23,0,3.35a2.58,2.58,0,0,0,2.7,2.59h5.83c.49,0,1,0,1.46,0a2.43,2.43,0,0,0,2.08-1.31,3.15,3.15,0,0,0,.34-1.65v-7.2a6.06,6.06,0,0,0,0-.85,2.5,2.5,0,0,0-2-2.11,3.94,3.94,0,0,0-.77-.05H68.5a2.37,2.37,0,0,0-2,1.08A2.75,2.75,0,0,0,66,37.21C66,38.49,66,39.78,66,41.07Z"/><path class="cls-5" d="M162,31.92v2.35c0,.37,0,.75,0,1.12a.83.83,0,0,1-.36.72c-1.06.82-2.11,1.66-3.15,2.5l-3.1,2.47a9.61,9.61,0,0,0,1.4,1.19c1.62,1.31,3.25,2.6,4.88,3.9a.68.68,0,0,1,.33.55c0,1.17,0,2.34,0,3.52a3.41,3.41,0,0,1-1.3.09c-.39,0-.8.12-1.17-.11,0-.37,0-.74,0-1.11a2.17,2.17,0,0,1,0-.51,1.33,1.33,0,0,0-.62-1.37c-1.71-1.33-3.4-2.69-5.09-4l-.28-.2a.34.34,0,0,0-.46,0l-1.08.85c-1.47,1.17-2.93,2.36-4.42,3.51a1.07,1.07,0,0,0-.47,1c0,.54,0,1.08,0,1.62,0,.21-.1.33-.3.33h-1.89c-.19,0-.32-.08-.32-.3,0-1.11,0-2.23,0-3.34a.57.57,0,0,1,.29-.49L147.66,44l3.21-2.56c.3-.23.3-.31,0-.52L146.1,37c-.4-.32-.8-.65-1.21-1a.72.72,0,0,1-.33-.65c0-1,0-2.11,0-3.17,0-.3.06-.38.32-.38h1.89c.2,0,.3.12.3.33,0,.57,0,1.14,0,1.71a1,1,0,0,0,.44.94c1.77,1.39,3.52,2.81,5.28,4.22.46.37.51.37,1,0l.87-.69c1.49-1.2,3-2.4,4.48-3.58a.93.93,0,0,0,.4-.87c0-.6,0-1.2,0-1.8a.24.24,0,0,1,.25-.27A15.57,15.57,0,0,1,162,31.92Z"/><path class="cls-6" d="M104.7,50.28a1.64,1.64,0,0,1-.32,0,18.26,18.26,0,0,1-2,0,5.28,5.28,0,0,1-.1-1.94c0-5.14,0-10.28,0-15.42v-.77c0-.17.08-.27.25-.28h16.37c.84,0,.77,0,.77.81,0,.45,0,.91,0,1.37s0,.46-.5.46H105.06a.25.25,0,0,0-.28.25v.35c0,1.37,0,2.74,0,4.11,0,.11,0,.23,0,.34a.22.22,0,0,0,.22.22h11.74c.45,0,.48,0,.48.5s0,1.09,0,1.63,0,.47-.5.47H105.08c-.22,0-.3.12-.3.32v.69c0,2,0,4,0,6A2,2,0,0,1,104.7,50.28Z"/><path class="cls-7" d="M83.21,32a1.3,1.3,0,0,1,.67-.08h16c.65,0,.65,0,.65.67s0,1.08,0,1.62c0,.28-.07.34-.37.35s-.45,0-.68,0H86.4c-.77,0-.77,0-.77.73v4.11c0,.39.07.44.45.45s.86,0,1.28,0h9.77c1.07,0,.93-.11.94,1q0,.6,0,1.2c0,.39,0,.41-.45.42H86.39c-.76,0-.76,0-.76.74v6.34c0,.2,0,.4,0,.6a.25.25,0,0,1-.28.25,16.63,16.63,0,0,1-2.12,0C83.13,49.57,83.12,32.66,83.21,32Z"/><path class="cls-8" d="M124,47.69h14.78a19.9,19.9,0,0,1,0,2.43.23.23,0,0,1-.24.2H122.26a1,1,0,0,1-.17,0c-.65,0-.66,0-.66-.66V32.54c0-.66,0-.66.65-.67h1.55a.28.28,0,0,1,.31.31c0,.22,0,.45,0,.68,0,4.6,0,9.2,0,13.79A2.72,2.72,0,0,0,124,47.69Z"/><path class="cls-2" d="M89.82,71.46a5.26,5.26,0,0,1,1.33-3.77,3.71,3.71,0,0,1,3.78-1.27,3.78,3.78,0,0,1,2.55,2,5.63,5.63,0,0,1-.2,6.08,3.89,3.89,0,0,1-2.68,1.84,3.75,3.75,0,0,1-3.83-1.73A5.08,5.08,0,0,1,89.82,71.46Z"/><path class="cls-2" d="M64.28,74.81a4.18,4.18,0,0,1,3.46,2,4,4,0,0,1-.63,5,4.67,4.67,0,0,1-4.69,1.4,4,4,0,0,1-2.14-6.6A5,5,0,0,1,64.28,74.81Z"/><path class="cls-3" d="M42.66,42.84a4.67,4.67,0,0,1-1.73,3.45,3.62,3.62,0,0,1-5.51-1.06,4.85,4.85,0,0,1,1.32-6.14,3.6,3.6,0,0,1,5.39,1.31A4.7,4.7,0,0,1,42.66,42.84Z"/><path class="cls-9" d="M140.09,41.06V32.84c0-.23,0-.46,0-.69a.25.25,0,0,1,.26-.27h.08a12.61,12.61,0,0,1,2,.06,4.84,4.84,0,0,1,.11,1.93c0,5.14,0,10.28,0,15.42v.78a.26.26,0,0,1-.27.27,6.59,6.59,0,0,1-.77,0,3.59,3.59,0,0,1-1.42-.1,6.28,6.28,0,0,1,0-1.37Q140.09,45,140.09,41.06Z"/><path class="cls-3" d="M75.17,20.44a3.12,3.12,0,0,1,1.56.37A2.45,2.45,0,0,1,77.9,24a4.11,4.11,0,0,1-2.07,2.19,4.38,4.38,0,0,1-3.06.41,2.46,2.46,0,0,1-1.85-3.4,3.8,3.8,0,0,1,1.26-1.69A4.67,4.67,0,0,1,75.17,20.44Z"/><path class="cls-3" d="M44.42,90.56a6.42,6.42,0,0,1,0,.72,2.08,2.08,0,0,1-2.69,1.78,3.24,3.24,0,0,1-1.21-.62,4.71,4.71,0,0,1-1.94-3.56,3,3,0,0,1,.05-.85,2,2,0,0,1,2.62-1.67,3.66,3.66,0,0,1,1.22.6A4.78,4.78,0,0,1,44.42,90.56Z"/><path class="cls-1" d="M33,19.41c-.51,0-.72-.3-.59-.75a2.65,2.65,0,0,1,.68-1.08,10.39,10.39,0,0,1,4.3-2.87,2.37,2.37,0,0,1,.75-.14.52.52,0,0,1,.54.74A3,3,0,0,1,38,16.39a10.71,10.71,0,0,1-4.29,2.88,2.25,2.25,0,0,1-.7.14Z"/><path class="cls-1" d="M61.14,6.21a2.43,2.43,0,0,1,1.34.23.47.47,0,0,1,.16.72A2.73,2.73,0,0,1,61.57,8a11.48,11.48,0,0,1-4.84,1.26,2.71,2.71,0,0,1-1.09-.17.46.46,0,0,1-.21-.76,3.39,3.39,0,0,1,1.14-.88,11.73,11.73,0,0,1,3.14-1A5.47,5.47,0,0,1,61.14,6.21Z"/><path class="cls-10" d="M31.45,91.59a2,2,0,0,1,1.05.33,11.41,11.41,0,0,1,3.57,3.38,3.52,3.52,0,0,1,.51,1.07c.11.45-.16.76-.6.66a3.64,3.64,0,0,1-.87-.33A10.86,10.86,0,0,1,31.36,93a2.07,2.07,0,0,1-.35-1A.41.41,0,0,1,31.45,91.59Z"/><path class="cls-10" d="M74.41,7.65A11.75,11.75,0,0,1,78.8,8.82a2,2,0,0,1,.62.46.39.39,0,0,1-.17.68,3.23,3.23,0,0,1-1.51.17,17.49,17.49,0,0,1-2.6-.47A8.94,8.94,0,0,1,73.48,9c-.33-.17-.74-.39-.69-.78s.54-.44.9-.49S74.15,7.67,74.41,7.65Z"/></svg>